<svg width="24" height="24" fill="none" xmlns="http://www.w3.org/2000/svg"><g id="announcement speaker"><path id="Union" fill-rule="evenodd" clip-rule="evenodd" d="M16.7 4.577c-.574 1.15-.959 2.809-.959 4.696 0 1.886.385 3.545.96 4.695.605 1.21 1.255 1.577 1.677 1.577.42 0 1.072-.367 1.677-1.577.574-1.15.959-2.809.959-4.695 0-1.887-.385-3.546-.96-4.696C19.45 3.367 18.8 3 18.379 3c-.422 0-1.072.368-1.677 1.577ZM4.137 7.498l10.569-3.37c-.614 1.423-.964 3.222-.964 5.145 0 1.923.35 3.722.964 5.144l-10.569-3.37-.018-.006a1.564 1.564 0 0 1-1.11-1.663 1 1 0 0 0 0-.21 1.564 1.564 0 0 1 1.11-1.664l.018-.006ZM3.537 5.59l13.824-4.408A2.909 2.909 0 0 1 18.378 1c1.587 0 2.754 1.26 3.465 2.683.741 1.482 1.17 3.46 1.17 5.59s-.429 4.107-1.17 5.59c-.71 1.422-1.878 2.682-3.465 2.682-.361 0-.7-.065-1.017-.182l-5.417-1.727.883 2.667a2.818 2.818 0 0 1-1.574 3.632h-.002a2.818 2.818 0 0 1-3.678-1.599L5.117 13.46l-1.58-.504A3.564 3.564 0 0 1 1.01 9.273 3.564 3.564 0 0 1 3.537 5.59Zm6.052 9.295-2.076-.662 1.935 5.418a.818.818 0 0 0 1.503 0 .818.818 0 0 0 .007-.625.993.993 0 0 1-.021-.058l-1.348-4.073Zm9.345-7.422c.445.498.692 1.142.694 1.81a2.718 2.718 0 0 1-2.417 2.696 11.416 11.416 0 0 1-.31-2.696c-.005-.908.1-1.814.31-2.697.664.074 1.277.39 1.723.887Z" fill="#008AFF"/></g></svg>